<?xml version="1.0" encoding="UTF-8"?>
<svg id="Camada_2" xmlns="http://www.w3.org/2000/svg" viewBox="0 0 444.5 482.43">
  <defs>
    <style>
      .cls-1 {
        fill: #08326c;
      }

      .cls-2 {
        fill: #06316b;
      }

      .cls-3 {
        fill: #09336c;
      }

      .cls-4 {
        fill: #09346d;
      }

      .cls-5 {
        fill: #0a346d;
      }

      .cls-6 {
        fill: #08336c;
      }

      .cls-7 {
        fill: #0e3870;
      }

      .cls-8 {
        fill: #07326b;
      }

      .cls-9 {
        fill: #042f69;
      }

      .cls-10 {
        fill: #0d376f;
      }

      .cls-11 {
        fill: #0c366f;
      }

      .cls-12 {
        fill: #0a356e;
      }

      .cls-13 {
        fill: #022e69;
      }

      .cls-14 {
        fill: #0c366e;
      }

      .cls-15 {
        fill: #05316b;
      }

      .cls-16 {
        fill: #103971;
      }
    </style>
  </defs>
  <g id="Camada_1-2" data-name="Camada_1">
    <path class="cls-15" d="M265.17,135.19v147.4c-8.58.81-17.57-6.29-19.56-15.3-.37-1.66-.54-3.4-.54-5.1-.03-45.29-.02-90.57-.02-135.86v-2.3c6.82,0,13.39,0,19.96,0,1.17,0,2.34.11,3.52.11,26.94,0,53.87,0,80.81,0,6.14,0,10.54,3.36,11.62,8.86.12.59.02,1.22.02,2.07h-38.02c1.55,3.24,2.92,6.15,4.32,9.05,10.94,22.74,21.87,45.49,32.86,68.2.74,1.53.84,2.65-.06,4.18-6.57,11.21-15.34,19.88-28.01,23.77-14.49,4.44-27.62,1.31-39.48-7.85-5.52-4.27-9.62-9.73-13.24-15.62-1-1.63-.98-2.96-.14-4.7,11.96-24.65,23.83-49.34,35.73-74.02.42-.87.78-1.78,1.27-2.9h-51.05ZM354.75,214.34c-10.66-22.12-21.19-43.97-31.71-65.81-.13.07-.26.14-.39.2v65.61h32.1ZM316.54,214.36v-66.44c-10.84,22.53-21.36,44.38-31.98,66.44h31.98Z"/>
    <path class="cls-15" d="M83.57,135.13c.03-6.57,4.69-10.96,11.29-10.97,14.82-.03,29.65.01,44.47-.02,18.98-.03,37.95-.11,56.93-.17.98,0,1.96,0,3.11,0,.05.97.13,1.75.13,2.53,0,45.1.01,90.21,0,135.31,0,10.81-6.4,18.65-16.87,20.76-.95.19-1.94.19-3.19.3v-147.69h-51.14c.51,1.14.92,2.11,1.38,3.06,11.81,24.52,23.6,49.05,35.5,73.53.98,2.02.94,3.51-.21,5.41-7.64,12.63-18.04,21.62-32.88,24.34-14.28,2.62-26.68-1.86-37.03-11.62-4.01-3.79-6.98-8.68-10.41-13.09-1.17-1.5-1.04-2.91-.18-4.67,11.96-24.65,23.83-49.34,35.72-74.03.42-.88.8-1.78,1.34-2.99h-37.95ZM121.89,148.62l-.38-.12c-10.55,21.9-21.09,43.81-31.66,65.76h32.04v-65.64ZM127.9,214.31h32.07c-10.63-22.08-21.15-43.93-31.67-65.77-.13.07-.27.13-.4.2v65.58Z"/>
    <path class="cls-9" d="M194.13,313.17c6.95-8.51,9.53-18.75,11.83-29.06,2.43-10.88,3.32-21.92,3.3-33.08-.09-41.21-.04-82.43-.04-123.64,0-.98,0-1.97,0-3.1h26.1c0,1.13,0,2.19,0,3.24.02,44.01-.17,88.03.17,132.04.12,15.51,3.15,30.68,9.49,44.99,1.37,3.09,3.39,5.89,5.11,8.83-14.9,10.35-21.12,26.46-27.09,42.93,0-.9,0-1.8,0-2.7,0-.99,0-1.99,0-2.98,0-9.58-.04-19.16.06-28.74,0-.92.65-2.14,1.39-2.69,1.94-1.43,3.04-3.08,2.42-5.52-.58-2.31-2.24-3.57-4.51-3.6-2.4-.03-4.21,1.26-4.74,3.67-.53,2.36.51,4.11,2.54,5.49.74.5,1.34,1.78,1.35,2.71.09,11.57.06,23.14.06,35.46-5.93-17.19-12.04-33.53-27.42-44.27Z"/>
    <path class="cls-11" d="M129.53,25.64c-3.86,2.69-7.05,5.02-10.34,7.2-25.12,16.61-46.38,37.06-62.38,62.71-15.96,25.58-25.81,53.33-28.73,83.39-5.31,54.52,9.42,103.09,43.96,145.54,15.15,18.61,33.43,33.66,54.37,45.43.46.26.95.47,1.77.87.13-3.52.82-6.61,3.92-8.55.28-.17,0-1.34-.11-2.02-.87-4.86-1.76-9.72-2.79-15.4,5.11,3.43,9.02,6.92,11.94,11.25,1.67,2.47,3.35,2.82,6.15,2.8,9.74-.05,19.51.08,29.23.7,26.28,1.66,52.56,1.73,78.86.56,11.46-.51,22.92-1.19,34.38-1.65,3.06-.12,6.15.09,9.19.47,1.71.21,2.61-.28,3.52-1.64,3.18-4.78,7.35-8.59,12.66-11.67-.84,4.81-1.62,9.63-2.58,14.42-.27,1.37,0,2.06.89,3.22,1.56,2.01,2.43,4.56,3.84,7.39,50.86-29.82,83.54-73.42,96.4-131.67,15.48-93.09-20.5-162.53-97.71-213.33.95.41,1.94.77,2.86,1.25,21.5,11.4,39.91,26.63,55.53,45.22,22.78,27.12,37.53,58.11,43.51,93.02,7.55,44.04,1.28,86.16-19.35,125.89-18.3,35.24-44.99,62.51-79.62,81.95-1.72.97-2.54,1.98-2.28,3.99.2,1.58.04,3.2.04,5.07,9.32-.1,18.41-.41,26.73,3.91,2.06,1.07,3.93,2.48,6.19,3.93-1.92,1.25-3.55,2.2-5.06,3.31-3.56,2.61-6.49,5.77-7.86,10.07-.23.71-.16,1.89.29,2.36,5.58,5.91,8.07,13.36,10.6,20.8.66,1.94,1.16,3.92,1.86,6.33-.89-.5-1.37-.7-1.77-1.01-6.45-5.06-13.57-5.32-21.03-2.89-7.17,2.33-14.4,3.15-21.87,1.54-8.79-1.89-14.06-7.31-15.46-16.21-.14-.88-.25-1.76-.39-2.83-7.64.53-15.22,1.05-23.42,1.62,2.38,1.66,4.24,2.97,6.67,4.68-9.88,1.01-18.92,1.65-27.4-3.31-1.46-.85-3.62-.52-5.45-.74-.12.23-.24.46-.36.69,2.62,2.32,5.25,4.65,8.18,7.25-8.15.49-15.69-.58-22.81-3.94-1.44-.68-2.44-.78-3.94-.06-7.12,3.43-14.7,4.46-23,4.02,2.97-2.54,5.59-4.79,8.57-7.35-2.76-.5-4.84-.6-7.08.65-6.31,3.51-13.26,3.8-20.27,3.41-1.79-.1-3.58-.37-6-.63,2.18-1.59,3.99-2.92,6.45-4.71-8.13-.57-15.6-1.1-23.2-1.64-.11.35-.27.66-.29.98-.73,10.79-7.53,17.37-18.88,18.69-6.03.7-11.95.14-17.64-1.8-8.15-2.77-15.77-2.61-22.73,3.02-.18.15-.47.16-1.08.36,2.85-9.47,5.25-18.84,11.99-26.21,1.18-1.29,1.03-2.38.51-3.64-1.96-4.78-5.42-8.24-9.75-10.92-.83-.52-1.66-1.05-2.74-1.74,9.51-8.37,20.91-8.19,32.74-7.98,0-2.37.22-4.62-.11-6.8-.13-.86-1.36-1.75-2.28-2.25-15.75-8.57-29.86-19.37-42.53-31.96-31.35-31.14-50.78-68.53-57.08-112.35-7.65-53.21,4.38-101.86,35.66-145.56,15.87-22.18,35.8-40.08,59.44-53.76,2.18-1.26,4.48-2.32,6.74-3.44.29-.15.67-.13,1.77-.32ZM131.22,408.17c6.4,0,12.62-.29,18.81.06,12.98.73,25.93,2.07,38.92,2.68,27.55,1.28,55.09.76,82.62-.87,13.84-.82,27.62-3.22,41.87-1.47,0-12.61.07-25.15-.03-37.69-.04-5.14-.84-6.52-5.84-7.67-5.32-1.22-10.86-2.23-16.28-2.16-12.82.18-25.62,1.38-38.44,1.57-20.22.31-40.46.37-60.68.08-13-.18-25.98-1.33-38.98-1.71-6.03-.18-12.09.38-17.82,2.67-2.25.9-4.1,2.23-4.11,4.83-.07,13.35-.03,26.7-.03,39.69ZM99.75,427.05c7.95-3.56,15.07-1.97,22.2.41,1.86.62,3.88.87,5.85,1.08,8.04.85,15.6-.13,21.23-6.71,1.11-1.3,1.48-3.24,2.2-4.89-1.72.02-3.46-.14-5.15.09-4.17.57-8.3,1.69-12.47,1.88-3.41.15-5.02-1.96-5.12-5.35-.26-8.93-.48-17.87-.73-26.8-.02-.68-.13-1.37-.2-2.15-9.66-.25-19.12-.6-27.69,5.15,1,.75,1.8,1.3,2.56,1.91,3.87,3.11,7.11,6.74,8.3,11.68.28,1.17-.1,2.99-.89,3.84-5.1,5.46-7.44,12.23-10.08,19.86ZM344.78,427.03c-2.59-7.28-4.64-14.01-9.67-19.2-1.69-1.75-2.12-3.47-1.13-5.6.61-1.3,1.06-2.76,1.96-3.82,2.6-3.05,5.39-5.94,8.2-9-8.19-5.35-17.64-5.14-27.17-4.74-.32,9.31-.73,18.32-.9,27.33-.11,5.48-2.2,7.73-7.65,6.99-4-.54-7.91-1.72-11.89-2.44-1.03-.19-2.18.29-3.28.46.26,1,.28,2.16.82,2.97,2.88,4.3,6.88,7.13,11.97,8.17,6.43,1.31,12.77.62,18.95-1.4,6.35-2.08,12.68-2.76,19.78.29ZM152.72,410.76c-6.47,0-12.65-.03-18.83.02-1.46.01-2.64.58-2.61,2.41.03,1.86.68,3.24,2.68,3.4,1.33.11,2.71.05,4.02-.21,4.72-.92,9.43-1.95,14.48-3.02.03-.31.13-1.26.26-2.61ZM292.08,413.38c4.31.91,8.04,1.79,11.81,2.45,2.36.41,4.82.76,7.17.51.83-.09,1.89-1.97,2.04-3.13.09-.7-1.32-2.23-2.15-2.3-4.3-.35-8.62-.43-12.94-.44-2.02,0-4.04.35-6.21.56.15,1.19.25,2.07.29,2.35Z"/>
    <path class="cls-2" d="M284.99,72.48v10.45h-125.32v-10.45h125.32Z"/>
    <path class="cls-4" d="M174.23,99.99v-10.42h96.09v10.42h-96.09Z"/>
    <path class="cls-4" d="M182.32,116.73v-10.34h79.83v10.34h-79.83Z"/>
    <path class="cls-7" d="M32.81,478.03c2.29-5.92,4.43-11.44,6.56-16.96.16-.42.32-.84.48-1.26q1.74-4.53,6.93-3.97v25.9h-3.29v-21.83c-.67,1.27-1.04,1.82-1.28,2.42-2.37,5.94-4.76,11.87-7.05,17.83-.49,1.27-1.11,1.78-2.52,1.76-1.4-.02-2.01-.47-2.51-1.79-2.22-5.9-4.58-11.74-6.9-17.6-.34-.87-.75-1.72-1.42-3.24v22.43h-3.31v-26.1c1.17,0,2.25.11,3.31-.02,1.73-.22,2.52.48,3.11,2.11,2.2,6,4.57,11.94,6.88,17.9.26.66.55,1.32,1.02,2.43Z"/>
    <path class="cls-3" d="M53.72,455.63c1.16,0,2.34.11,3.48-.03,1.55-.19,2.22.49,2.74,1.87,2.3,6.16,4.7,12.28,7.08,18.41.22.57.5,1.12.96,2.12,2.43-6.34,4.7-12.27,6.98-18.2q1.73-4.51,6.91-3.98v25.95h-3.15v-21.29c-.13-.06-.26-.12-.4-.18-.27.53-.6,1.04-.82,1.59-2.4,6.03-4.81,12.05-7.13,18.1-.51,1.34-1.18,2.36-2.69,1.82-.91-.33-2.05-1.01-2.39-1.82-2.74-6.64-5.31-13.34-8.3-19.98v21.72h-3.27v-26.11Z"/>
    <path class="cls-14" d="M199.26,478.97c-2.18,3.13-5.27,4.22-9.03,2.84-2.43-.89-3.72-2.72-3.84-5.36-.21-4.81,3.33-6.36,6.83-7.85-.35-2.03-.85-3.96-.97-5.91-.33-5.13,3-8.14,8.11-7.52,2.57.31,4.42,1.59,5.12,4.14.69,2.49.03,4.73-2.06,6.27-1.31.97-2.88,1.58-4.34,2.35-.17-.24-.34-.49-.51-.73.59-.54,1.33-.99,1.74-1.65.74-1.18,1.6-2.42,1.85-3.74.37-1.93-.64-3.38-2.7-3.65-1.92-.25-3.08.84-3.51,2.63-.2.86-.27,1.81-.12,2.68.84,4.8,2.72,9.16,6,12.8.99,1.1,2.33,2.16,3.7,2.56,1.05.31,2.97-.07,3.49-.83.5-.74.04-2.58-.6-3.53-.64-.95-1.95-1.55-3.09-2.05-2.51-1.11-2.54-1.04-2.41-3.98h8.97v2.67c-2.28-.25-4.47-.48-6.67-.72-.05.14-.1.29-.14.43,1.15.42,2.33.79,3.45,1.27,3.48,1.48,5,4.15,4.01,6.95-.94,2.67-4.47,4.15-7.77,2.93-1.9-.7-3.6-1.93-5.54-2.99ZM193.89,470.3c-2.46,1.2-4.43,2.73-3.96,5.41.23,1.31,1.56,2.84,2.8,3.47,2.08,1.06,4.12.24,5.7-1.41-1.56-2.56-3-4.93-4.55-7.47Z"/>
    <path class="cls-10" d="M411.36,455.83v25.77c-2.79.69-4.73.38-6.41-2.51-3.71-6.38-7.91-12.48-12.26-19.24v21.92h-3.4c0-8.62,0-17.21,0-25.81q4.37-.88,6.7,2.76c3.78,5.9,7.57,11.79,11.72,18.26v-21.15h3.64Z"/>
    <path class="cls-1" d="M425.89,227.27c2.55-3.13,5.18-6.36,7.81-9.59l-.79-.87c-3.26,2.2-6.52,4.4-9.92,6.7,2.22-13.13,13.58-18.88,21.42-27.83.8,11.14-4.94,29.68-18.53,31.59Z"/>
    <path class="cls-1" d="M10.83,217.73c2.64,3.22,5.29,6.43,7.89,9.61C5.69,225.23-.33,208.93.01,195.7c8.07,8.88,19.18,14.7,21.54,27.83-3.43-2.34-6.67-4.53-9.9-6.73-.27.31-.55.62-.82.93Z"/>
    <path class="cls-1" d="M430.05,241.07c-2.08.8-4.21,1.51-6.24,2.44-1.52.7-2.91,1.69-4.85,2.84,3.88-13.07,15.78-17.48,24.41-25.46,1.05,13.22-10.98,28.98-21.62,29.23,2.64-2.91,5.43-6,8.23-9.09.1-.09.2-.18.3-.28-.1-.01-.21-.02-.31-.03.03.12.05.23.08.35Z"/>
    <path class="cls-1" d="M14.57,241.03c2.79,3.09,5.58,6.18,8.21,9.09-10.42-.22-20.49-13.21-21.96-29.42,8.97,8.09,20.81,12.54,24.7,25.4-3.27-1.7-6.18-3.25-9.14-4.72-.54-.27-1.25-.22-1.88-.31.03-.12.05-.23.07-.35-.1.01-.21.02-.31.04.1.09.2.18.3.27Z"/>
    <path class="cls-6" d="M431.35,169.13c-2.6,2.73-5.2,5.46-7.98,8.36-.44-4.16.04-8.21,2.02-11.71,3.8-6.7,8.07-13.15,12.35-20.04,3.48,13.97.92,30.12-10.62,34.89,1.51-3.54,3.11-7.26,4.7-10.98.05-.23.1-.47.15-.7-.21.06-.42.12-.63.18Z"/>
    <path class="cls-6" d="M423.22,264.05c-3.45,1.27-6.9,2.53-10.21,3.75,2.17-8.16,9.74-12.48,26.44-21.47-2.46,13.07-12.72,26.96-24.86,26,2.9-2.45,6.02-5.09,9.15-7.72.11-.19.23-.38.34-.56-.29,0-.58,0-.86,0Z"/>
    <path class="cls-1" d="M12.7,169.67c1.58,3.69,3.17,7.38,4.65,10.83-8.92-1.43-15.25-20.73-10.54-34.79,4.34,7.06,8.8,13.61,12.46,20.58,1.67,3.18,1.75,7.19,2.55,10.83-.26.07-.52.15-.78.22-2.61-2.73-5.22-5.46-7.83-8.18-.21-.06-.42-.13-.63-.19.04.24.09.48.13.72Z"/>
    <path class="cls-6" d="M414.54,286.28c-3.62.94-7.25,1.89-11.08,2.89,2.12-3.89,4.84-7.19,8.61-9.13,6.47-3.33,13.17-6.2,19.79-9.23.24-.11.6.06.91.1l-.07-.04c-4.57,13.09-16.17,25.17-27.58,22.78,3.08-2.15,6.46-4.52,9.84-6.89.14-.15.28-.3.43-.45-.28,0-.56-.02-.84-.02Z"/>
    <path class="cls-6" d="M31.71,267.95c-3.63-1.45-7.26-2.9-10.89-4.34-.2.31-.41.61-.61.92,3.33,2.62,6.67,5.25,9.78,7.69-12.26,1.25-22.26-12.86-25.03-25.9,13.88,5.55,24.23,13.91,26.74,21.63Z"/>
    <path class="cls-6" d="M21.03,293.77c20.56,5.79,26.11,7.65,31.14,15.3-3.82-.61-7.64-1.22-11.46-1.84-.13.38-.27.76-.4,1.14,3.91,1.78,7.81,3.56,11.5,5.25-9.38,3.8-22.81-4.64-30.79-19.85Z"/>
    <path class="cls-6" d="M11.96,270.79c9.12,3.81,18.91,6.39,26.02,13.95.73.78,1.37,1.67,1.99,2.55.39.56.67,1.19,1.03,1.85-3.75-.98-7.36-1.92-10.98-2.86-.28,0-.57.01-.85.02.13.16.27.32.4.48,3.36,2.34,6.73,4.67,9.99,6.94-4.26.79-8.63-.32-12.5-2.79-7.47-4.78-12.25-11.77-15.21-20.05l.11-.08Z"/>
    <path class="cls-6" d="M392.65,313.64c3.83-1.74,7.69-3.48,11.54-5.23-.12-.39-.24-.78-.36-1.17-3.82.61-7.63,1.21-11.45,1.82-.17-.17-.33-.35-.5-.52,2.86-2.35,5.38-5.47,8.64-6.9,7.36-3.22,15.08-5.61,23.22-8.54-7.04,15.02-21.2,24.03-31.09,20.53Z"/>
    <path class="cls-1" d="M25.06,155.1c-2.65-3.66-4.96-6.84-7.26-10.01-.29.14-.58.29-.86.43,1.37,4.04,2.74,8.07,4.07,11.99-9.19-3.82-12.29-19.54-6.55-35.95,4.32,11.19,12.78,20.39,10.61,33.53Z"/>
    <path class="cls-4" d="M411.51,315.44c-8.86,13.55-22.36,21.39-32.77,16.67,3.96-1.29,8.04-2.63,12.12-3.96-.07-.39-.13-.78-.2-1.18-3.91.19-7.82.39-11.93.59,2.9-3.31,6.18-6.04,10.34-7.1,7.22-1.85,14.55-3.28,22.44-5.02Z"/>
    <path class="cls-8" d="M16.45,203.95c-7.49-2.85-11.85-8.49-13.42-16.09-1.12-5.41-1.43-10.98-1.5-16.66,7.24,9.09,17.56,16.03,18.59,29.2-3.19-2.58-6.14-4.98-9.1-7.38-.2-.06-.41-.12-.61-.17.07.2.13.41.2.61,2.05,3.37,4.11,6.74,6.16,10.12-.12.11-.22.23-.31.37Z"/>
    <path class="cls-8" d="M433.53,193.01c-2.91,2.37-5.83,4.73-8.66,7.04-1.16-6.39,7.04-19.77,18.21-29.17-.02,11.3-.06,22.18-9.62,30.03-1.56,1.28-3.56,2.03-5.36,3.03-.09-.13-.19-.25-.31-.35,2.05-3.37,4.1-6.75,6.15-10.12.07-.2.14-.41.2-.61-.21.05-.41.11-.62.16Z"/>
    <path class="cls-4" d="M33.38,315.62c6.3,1.32,12.33,2.64,18.4,3.83,4.64.91,8.67,2.9,12.13,6.12.64.6,1.46,1.01,2.19,1.52-.17.16-.33.33-.5.49-3.89-.21-7.79-.42-11.68-.63-.1.37-.19.74-.29,1.11,4.05,1.37,8.09,2.75,11.93,4.05-6.73,5.57-26.2-3.97-32.19-16.49Z"/>
    <path class="cls-1" d="M430.32,122.17c5.4,16.24,2.65,30.28-6.84,35.49,1.37-4,2.75-8.01,4.13-12.02-.3-.16-.59-.32-.89-.47-2.32,3.19-4.65,6.37-6.95,9.53-2.53-6.06,2.11-20.54,10.55-32.52Z"/>
    <path class="cls-16" d="M116.84,471.93h-5.62v-2.91h9.21v12.72c-.79.04-1.64.09-2.75.15.2-2.38.38-4.58.56-6.78-.1-.03-.21-.05-.31-.08-.13.28-.3.55-.38.84-1.03,3.61-3.15,6.1-7.08,6.45-4.25.37-8.07-.79-10.23-4.66-3.27-5.86-3.28-12.01.16-17.77,2.77-4.64,7.5-5.29,12.41-4.55,4.11.62,6.45,3.21,7.36,7.88-1.05.3-2.12.61-3.19.92-1.82-4.73-3.8-6.12-7.96-5.74-3.71.34-6.12,2.51-6.75,6.9-.38,2.62-.27,5.42.23,8.02.78,3.99,3.89,6.04,7.93,5.8,3.71-.22,5.73-2.36,6.42-7.19Z"/>
    <path class="cls-6" d="M396.8,336.42c-9.68,11.23-23.33,18.58-34.01,12.57,4.05-.86,8.09-1.72,12.14-2.58-.02-.38-.05-.77-.07-1.15-3.76-.28-7.53-.56-11.21-.83,3.58-5.2,15.17-8.06,33.15-8.01Z"/>
    <path class="cls-6" d="M81.34,344.41c-4.07.29-7.84.56-11.6.82-.03.38-.07.77-.1,1.15,4.03.87,8.05,1.74,11.96,2.59-10.23,6.07-23.83-1.07-33.61-12.21,6.88-2.17,27.63,2.49,33.35,7.64Z"/>
    <path class="cls-6" d="M417.27,135.11c.87-3.94,1.78-8.02,2.68-12.1-.36-.15-.71-.29-1.07-.44-1.85,3.39-3.71,6.78-5.74,10.48-3.87-12.45,3.41-22.52,6.14-33.86,6.75,11.85,8.16,29.29-2.02,35.92Z"/>
    <path class="cls-4" d="M119.36,376.66c-6.51,5.04-13.79,5.71-21.25,3.03-5.2-1.86-10.09-4.58-14.98-7.2,14.99-3.38,26.84-5.16,34.15-.01-3.59,1.06-7.17,2.13-10.76,3.2.04.4.09.79.13,1.19,2.88,0,5.76.01,8.64,0,1.34,0,2.69-.08,4.03-.13l.04-.07Z"/>
    <path class="cls-6" d="M25.21,99.04c2.49,7.89,5.06,15.25,7.06,22.77.96,3.61.45,7.47-.94,11.18-1.92-3.56-3.74-6.94-5.56-10.31-.36.11-.71.21-1.07.32.8,3.99,1.6,7.98,2.42,12.07-9.96-7.17-8.51-23.78-1.9-36.02Z"/>
    <path class="cls-3" d="M64.15,354.75c11.92.95,23.88-3.02,34.6,4.77-4.1.67-7.86,1.28-11.62,1.9,3.92,2.63,8.26,2.13,12.54,2.22-9.16,7.07-24.04,2.44-35.52-8.89Z"/>
    <path class="cls-4" d="M357.39,361.42c-3.74-.61-7.48-1.23-11.5-1.89,4.24-3.22,8.88-4.8,14.01-4.86,6.65-.08,13.3-.02,20.37-.02-10.25,10.68-25.48,16.29-35.16,9.3,3.96-.43,8.13-.88,12.3-1.34,0-.4-.02-.8-.03-1.2Z"/>
    <path class="cls-4" d="M40.26,111.99c-1.51-3.86-2.93-7.49-4.34-11.13-.34.06-.68.13-1.02.19.34,4.19.68,8.38,1,12.32-8.6-7.03-6.37-22.56,2.38-35.73,1.47,11.69,7.16,22.48,1.97,34.35Z"/>
    <path class="cls-4" d="M406.17,77.73c8.38,11.96,11.33,27.66,2.46,35.8.35-4.14.69-8.29,1.04-12.45-.34-.08-.67-.15-1.01-.23-1.42,3.61-2.85,7.23-4.37,11.1-5.27-11.84.61-22.68,1.88-34.22Z"/>
    <path class="cls-6" d="M325.25,376.72h12.58c.07-.32.14-.64.21-.96-3.56-1.1-7.13-2.19-10.88-3.35,4.39-2.65,9.24-3.66,14.25-3.19,6.64.61,13.24,1.68,20.37,2.62-5.55,4.07-11.23,6.84-17.44,8.47-6.94,1.83-13.39.84-19.14-3.66l.04.07Z"/>
    <path class="cls-6" d="M147.13,481.77h-3.18c-1.76-3.24-2.75-6.88-5.12-8.82-1.86-1.52-5.44-.92-8.54-1.3v10.05h-3.51v-25.85c4.1,0,8.15-.27,12.15.07,4.48.38,7.16,3.19,7.37,6.93.2,3.68-1.66,5.82-6.83,7.38,6.38,1.52,5.84,7,7.67,11.53ZM130.34,469.1c3.07-.25,6.03-.29,8.89-.8,2.32-.42,3.33-2.26,3.32-4.61-.01-2.26-1.1-4.02-3.22-4.43-2.92-.56-5.94-.59-8.98-.86v10.7Z"/>
    <path class="cls-3" d="M53.87,57.96c-.11,11.69,4.1,22.97-2.4,34.03-.99-3.94-1.89-7.52-2.79-11.11-.32.02-.65.05-.97.07v12.82c-7.54-7.67-4.82-23.66,6.16-35.81Z"/>
    <path class="cls-3" d="M391.06,58.47c9.69,11.34,14.06,26.47,5.97,34.98v-12.39c-.36-.07-.72-.13-1.07-.2-.94,3.58-1.88,7.15-2.83,10.75-4.46-6.04-5.21-17.93-2.07-33.14Z"/>
    <path class="cls-12" d="M251.68,468.73c.6-2.42.89-4.98,1.86-7.24,2.02-4.67,5.92-6.52,10.91-6.34,4.75.17,8.03,2.51,9.76,6.85,1.66,4.15,1.72,8.45.36,12.71-1.75,5.47-6.47,8.31-12.45,7.61-5.61-.65-9.33-4.78-9.95-11.06-.08-.8-.01-1.62-.01-2.43-.16-.03-.32-.07-.48-.1ZM271.98,469.23c-.44-2.13-.64-4.13-1.29-5.96-1.18-3.31-3.71-4.93-7.03-4.88-3.43.05-6.11,1.87-7.1,5.22-1.13,3.8-1.23,7.67.42,11.38,1.27,2.85,3.61,4.16,6.69,4.17,3.06,0,5.54-1.2,6.76-4.05.8-1.86,1.06-3.95,1.54-5.88Z"/>
    <path class="cls-12" d="M359.6,468.73c.6-2.42.89-4.98,1.86-7.24,2.02-4.67,5.92-6.52,10.91-6.34,4.75.17,8.03,2.51,9.76,6.85,1.66,4.15,1.72,8.45.36,12.71-1.75,5.47-6.47,8.31-12.45,7.61-5.61-.65-9.33-4.78-9.95-11.06-.08-.8-.01-1.62-.01-2.43-.16-.03-.32-.07-.48-.1ZM363.43,468.73c.5,2.15.76,4.33,1.54,6.29,1.15,2.89,3.6,4.15,6.68,4.15,3.06,0,5.53-1.23,6.76-4.08,1.82-4.26,1.8-8.64-.24-12.83-1.29-2.67-3.62-3.92-6.62-3.85-3.09.07-5.47,1.4-6.61,4.28-.75,1.89-1.01,3.97-1.51,6.05Z"/>
    <path class="cls-11" d="M226.67,473.85c1.05-.27,1.98-.52,2.9-.76,1.54,5.63,6.91,8.04,12,5.26,1.12-.61,2.21-2.3,2.25-3.52.03-1.03-1.29-2.64-2.38-3.06-2.84-1.1-5.91-1.57-8.82-2.52-3.97-1.3-5.69-3.64-5.44-7.06.05-.71.21-1.43.46-2.1,1.42-3.8,5.82-5.62,11.53-4.81,4.49.64,7.08,3.27,7.42,7.73-.95.26-1.94.53-2.92.79-2.04-5-4.47-6.39-9.09-5.36-2.01.45-3.57,1.39-3.82,3.61-.26,2.37,1.32,3.42,3.25,4.01,2.58.79,5.24,1.34,7.81,2.15,4.06,1.28,5.93,3.55,5.82,6.81-.11,3.52-2.37,6.17-6.49,6.82-2.61.42-5.41.44-8.01,0-4.35-.72-6.19-3.2-6.47-8.01Z"/>
    <path class="cls-14" d="M436.61,463.1c-1.03.25-1.97.47-2.91.7-1.75-4.93-4.77-6.6-9.48-5.26-1.87.53-3.27,1.58-3.43,3.68-.16,2.1,1.24,3.16,2.94,3.71,2.65.86,5.4,1.42,8.06,2.25,4.4,1.38,6.07,3.53,5.84,7.27-.2,3.34-2.42,5.82-6.54,6.42-2.7.4-5.59.38-8.28-.1-4.13-.74-5.9-3.41-5.88-7.93.87-.25,1.79-.51,2.7-.77,1.91,5.67,6.55,7.87,11.71,5.39,1.22-.59,2.53-2.3,2.6-3.57.06-1.05-1.43-2.7-2.61-3.2-2.46-1.04-5.19-1.44-7.77-2.21-4.87-1.46-6.69-3.8-6.21-7.78.46-3.78,3.47-6.4,8.06-6.45,2.37-.03,4.88.33,7.08,1.15,2.8,1.05,4.31,3.37,4.11,6.68Z"/>
    <path class="cls-3" d="M64.78,73c-.41-3.63-.81-7.25-1.21-10.86-.36-.03-.72-.06-1.07-.09-.71,4.04-1.42,8.07-2.09,11.88-6.39-8.67-.28-22.84,10.49-32.92,2.24,8.71-1.32,27.39-6.12,32Z"/>
    <path class="cls-4" d="M379.69,73.41c-7.72-9.95-5.08-21.51-6.66-32.68,9.86,8.36,17.73,23.28,11.13,33.44-.69-4.05-1.38-8.08-2.07-12.11-.35.02-.7.04-1.05.06-.43,3.59-.86,7.18-1.35,11.29Z"/>
    <path class="cls-5" d="M352.83,26.25c11.53,6.76,21.18,19.51,15.84,30.68-1.13-3.81-2.29-7.7-3.45-11.59-.29.05-.59.11-.88.16v11.11c-8.53-8.63-8.01-20.07-11.52-30.37Z"/>
    <path class="cls-5" d="M91.47,26.38c-4.71,21.15-6.41,25.69-11.18,29.85v-10.7c-.3-.07-.6-.15-.9-.22-1.18,3.85-2.35,7.7-3.46,11.33-5.77-6.43,2.56-23.29,15.55-30.26Z"/>
    <path class="cls-6" d="M412.62,178.55c-3.28-1.96-6.39-3.82-9.51-5.68-.24.29-.49.59-.73.88,2.6,2.85,5.21,5.7,7.71,8.43-8.47-.45-17.95-11.1-21-23.8,12.3,3.96,23.5,11.41,23.52,20.16Z"/>
    <path class="cls-3" d="M41.53,172.86c-3.18,1.88-6.36,3.76-9.51,5.62-.1-8.12,8.85-14.72,23.12-20.24-.11,9.8-11.13,22.51-20.82,24.09,2.6-2.82,5.25-5.69,7.89-8.57-.23-.3-.45-.6-.68-.9Z"/>
    <path class="cls-4" d="M45.62,266.57c1.2-3.92,2.33-7.59,3.45-11.26-.32-.16-.64-.33-.96-.49-2.11,3.15-4.22,6.3-6.25,9.34-3.53-7.37,1.81-17.63,12.46-28.41,2.48,11.54-.11,24.68-8.7,30.81Z"/>
    <path class="cls-4" d="M405.07,245.9c-5.72-3.28-9.14-8.39-10.61-14.61-1.13-4.78-1.43-9.75-2.14-14.95,9.48,4.04,18.7,19.58,16.54,26.86-2.4-2.6-4.86-5.27-7.33-7.94-.22-.05-.43-.1-.65-.14.05.24.09.48.14.72,1.33,3.37,2.66,6.74,4,10.11l.05-.05Z"/>
    <path class="cls-3" d="M394.54,196.55c4.81,4.44,9.82,8.67,14.34,13.38,3.27,3.4,4.12,7.51,3.65,11.98-2.74-2.55-5.49-5.1-8.23-7.64-.28.23-.56.45-.84.68,1.93,3.36,3.85,6.72,5.78,10.08-9.74-4.04-14.61-14.77-15.49-27.85.26-.21.52-.42.78-.63Z"/>
    <path class="cls-4" d="M378.71,292.97c.22,3.9.44,7.8.65,11.64-6.69-7.51-6.54-19.68-1.4-31.78,7.52,8.83,10.13,23.05,5.64,30.46-1.27-3.47-2.55-6.99-3.83-10.51-.35.06-.7.13-1.06.19Z"/>
    <path class="cls-6" d="M411.35,203.44c-.91-.16-1.91-.13-2.72-.51-7.11-3.37-11.4-9.18-13.85-16.48-.96-2.86-1.71-5.79-2.67-9.08,14.82,7.36,21.92,14.16,21.85,23.03-3.03-2.28-6.08-4.57-9.13-6.86-.21.21-.41.42-.62.63,1.87,3.44,4.04,6.68,7.1,9.28h.03Z"/>
    <path class="cls-6" d="M33.24,203.44c2.49-2.99,4.99-5.97,7.48-8.96-.3-.33-.61-.65-.91-.98-3.09,2.3-6.17,4.6-9.23,6.88-.03-8.59,6.28-15.23,21.27-22.74.31,9.41-8.17,22.39-16.88,25.79-.51.2-1.17.01-1.77,0h.03Z"/>
    <path class="cls-3" d="M50.82,196.68c-.25,13.19-8.03,26.96-15.31,27.91,1.82-3.13,3.69-6.35,5.56-9.57-.27-.24-.54-.48-.82-.72-2.73,2.52-5.46,5.04-8.32,7.68-.47-4.01.42-7.73,2.77-10.87,4.29-5.75,9.91-10.09,16.12-14.42Z"/>
    <path class="cls-3" d="M39.54,245.95c1.32-3.38,2.65-6.76,3.97-10.15.06-.29.12-.58.18-.87-.24.11-.47.22-.71.33-2.42,2.63-4.84,5.26-7.17,7.79-3.07-7.1,4.27-17.44,15.56-26.63,2.45,10.36-3.32,24.65-11.88,29.47l.05.05Z"/>
    <path class="cls-5" d="M66.24,272.16c5.38,12.36,5.7,24.8-1.05,32.4.21-3.83.42-7.72.63-11.6-.33-.08-.66-.15-.99-.23-1.31,3.54-2.63,7.08-4,10.79-6.01-11.71.98-20.99,5.42-31.36Z"/>
    <path class="cls-3" d="M390.86,235.35c3.57,5.15,7.35,10.17,10.65,15.5,2.58,4.17,2.71,8.87,1.34,13.62-2.13-3.23-4.21-6.39-6.29-9.54-.32.13-.65.27-.97.4,1.02,3.64,2.05,7.27,3.25,11.55-9.8-8.96-10.22-19.77-8.96-31.05.33-.16.65-.32.98-.48Z"/>
    <path class="cls-10" d="M319.04,455.77h3.52c0,6.26.28,12.47-.1,18.65-.24,3.92-2.83,6.68-6.81,7.43-2.25.42-4.69.51-6.94.12-4.78-.83-7.52-3.93-7.7-8.75-.21-5.76-.05-11.54-.05-17.45h3.7c0,5.26-.03,10.39,0,15.52.04,6.09,3.67,8.89,9.59,7.44,2.94-.72,4.5-2.45,4.64-5.83.19-4.69.11-9.39.14-14.08,0-.97,0-1.94,0-3.05Z"/>
    <path class="cls-6" d="M394.3,284.28c-1.81-3.5-3.54-6.85-5.27-10.21-.31.13-.62.25-.93.38.72,3.94,1.45,7.88,2.23,12.15-8.99-9.66-7.9-20.65-5.47-32.07,7.33,8.45,14.21,21.41,9.43,29.76Z"/>
    <path class="cls-6" d="M59.41,254.51c3.57,12.65,2.68,24.14-5.13,31.77.73-4.03,1.44-7.94,2.15-11.85-.3-.13-.61-.25-.91-.38-1.74,3.35-3.48,6.7-5.16,9.96-4.67-6.66.15-18.24,9.05-29.5Z"/>
    <path class="cls-1" d="M45.34,153.04c-3.33,1.31-6.65,2.62-9.79,3.85.5-8.05,12.25-14.47,25.14-17.09-5.16,13.24-13.35,20.61-23.24,21.4,2.76-2.56,5.54-5.16,8.33-7.75.06-.2.12-.4.18-.6l-.62.19Z"/>
    <path class="cls-1" d="M398.77,153.45c2.74,2.55,5.48,5.11,8.13,7.57-9.77-.26-17.98-8.64-23.1-21.07,9.31-.52,23.69,9.28,25.34,17.02-3.2-1.27-6.56-2.6-9.92-3.93-.21-.06-.41-.13-.62-.19.06.2.11.4.17.6Z"/>
    <path class="cls-4" d="M370.81,320.9c-.88-3.72-1.72-7.32-2.57-10.92-.34.02-.68.04-1.02.07-.27,3.84-.55,7.69-.82,11.57-5.59-8.46-4.04-19.89,2.39-31.59,5.85,12.25,8.11,24.1,2.03,30.87Z"/>
    <path class="cls-5" d="M345.11,320.76c2.97,15.92,1.24,25.52-5.53,30.58v-11.37l-.84-.15c-1.15,3.82-2.29,7.64-3.4,11.34-3.83-8.82.83-21.26,9.77-30.4Z"/>
    <path class="cls-4" d="M75.58,289.89c6.53,11.27,8.17,23.14,2.56,31.75-.26-3.92-.52-7.69-.77-11.46-.35-.05-.71-.09-1.06-.14-.86,3.59-1.71,7.17-2.54,10.66-5.83-5.9-4.41-16.35,1.81-30.81Z"/>
    <path class="cls-5" d="M99.38,320.76c9.1,9.24,13.58,21.6,9.83,30.39-1.12-3.7-2.26-7.52-3.41-11.33-.28.05-.56.1-.83.16v11.14c-6.42-3.23-8.32-13.27-5.58-30.36Z"/>
    <path class="cls-6" d="M42.65,140.58c3.45-2.44,6.64-4.69,9.83-6.94-.16-.33-.33-.66-.49-.99-3.52,1.2-7.03,2.39-10.48,3.56,1.81-7.74,10.65-12.08,26.52-14.69-2.96,9.92-14.91,18.99-25.37,19.05Z"/>
    <path class="cls-6" d="M356.09,336.98c-.42-3.86-.83-7.58-1.23-11.31-.33-.02-.67-.04-1-.05-.71,3.92-1.43,7.84-2.13,11.69-4.6-8.5-1.79-20.7,6.04-31.12,4.13,12.34,5.36,24.56-1.67,30.79Z"/>
    <path class="cls-6" d="M86.79,305.7c6.31,10.02,11.08,19.88,6.09,31.95-.75-4.21-1.44-8.07-2.14-11.94-.34,0-.68,0-1.03.01-.42,3.65-.84,7.31-1.24,10.85-6.54-4.51-6.25-16.05-1.68-30.88Z"/>
    <path class="cls-5" d="M150.12,481.58c2.9-8.24,5.76-16.49,8.76-24.68.22-.61,1.47-1.22,2.22-1.19,1.27.04,3.39.26,3.66.97,3.14,8.24,6,16.58,9,25.08h-3.86c-.68-1.9-1.36-3.81-2.07-5.81-3.55,0-6.98.07-10.4-.02-2.23-.06-2.12,1.75-2.37,2.97-.6,2.88-2.2,3.57-4.93,2.69ZM156.93,473.04h10.02c-1.65-4.9-3.23-9.61-5.05-15.02-1.82,5.48-3.36,10.16-4.97,15.02Z"/>
    <path class="cls-4" d="M317.3,363.33c-2.34-12.93,4.92-21.35,13.25-29.32-.24,10.66,1.78,21.97-8.76,29.89.44-3.96.85-7.58,1.25-11.2-.33-.1-.66-.2-.99-.3-1.56,3.6-3.13,7.2-4.75,10.94Z"/>
    <path class="cls-6" d="M403.43,136.36c-3.81-1.31-7.32-2.51-10.84-3.72-.16.31-.33.63-.49.94,2.82,2.07,5.64,4.14,8.48,6.22-8.52,1.93-18.91-7.44-24.2-18.08,11.2-.24,23.56,6.36,27.06,14.64Z"/>
    <path class="cls-6" d="M127.2,363.31c-1.61-3.8-3.1-7.32-4.59-10.84-.35.07-.71.14-1.06.22.38,3.63.77,7.26,1.14,10.78-7.57-3.67-9.77-14.83-8.62-29.8,8.2,8.27,15.44,16.63,13.14,29.64Z"/>
    <path class="cls-12" d="M384.54,101.62c-13.03,2.37-21.13-5-28.96-13.44,10.87-1.02,24.68.78,28.97,8.87-3.6-.43-7.15-.85-10.7-1.28-.11.36-.22.72-.33,1.08,3.53,1.53,7.06,3.06,11.02,4.77Z"/>
    <path class="cls-12" d="M89.13,87.61c-8.52,11.14-19.82,16.43-28.86,13.87,3.57-1.52,7.14-3.03,10.72-4.55-.09-.36-.18-.73-.27-1.09-3.56.4-7.12.8-10.97,1.23,7.51-10.05,18.45-8.63,29.38-9.45Z"/>
    <path class="cls-6" d="M77.76,104.46c-7.02,9.08-14.3,17.08-27.35,16.13,3.58-2.05,6.91-3.95,10.24-5.85l-.35-.96c-3.58.78-7.17,1.56-10.71,2.34,3.32-8.28,14.24-11.27,28.17-11.66Z"/>
    <path class="cls-3" d="M394.1,120.59c-10.63.62-22.4-6.54-26.92-16.17,13.85.51,24.47,3.56,27.76,11.69-3.56-.78-7.11-1.56-10.65-2.34-.14.31-.27.61-.41.92,3.3,1.9,6.6,3.8,10.21,5.89Z"/>
    <path class="cls-4" d="M101.66,73.09c-9.55,9.68-20.99,14.19-28.99,10.51,3.52-1.14,7.1-2.3,10.68-3.46-.04-.26-.08-.52-.13-.78h-10.44c3.69-6.64,15.1-8.25,28.87-6.27Z"/>
    <path class="cls-4" d="M342.36,72.76c10.68-.16,21.27-2.58,29.92,6.53h-10.96c-.06.27-.11.54-.17.81,3.6,1.19,7.19,2.37,10.61,3.5-6.39,3.82-19.47-.75-29.41-10.84Z"/>
    <path class="cls-4" d="M114.3,16.13c-5.95,8.73-7.99,19.09-16.69,25.51.66-3.48,1.28-6.69,1.89-9.89-.34-.13-.69-.27-1.03-.4-1.74,3.44-3.48,6.88-5.24,10.36-1.28-4.29-.42-8.39,2.03-12.2,3.82-5.94,9.66-9.33,15.85-12.23.78-.37,1.63-.59,3.2-1.15Z"/>
    <path class="cls-4" d="M330.25,16.17c15.45,5.26,23.92,15.88,21.02,25.44-1.68-3.34-3.41-6.77-5.14-10.2-.35.11-.7.22-1.06.33.59,3.21,1.18,6.42,1.82,9.88-8.68-6.38-10.68-16.77-16.65-25.45Z"/>
    <path class="cls-3" d="M328.82,58.44c15.56-1.74,23.02-1.39,28.35,4.48-3.32.29-6.65.57-9.98.86-.03.36-.06.72-.09,1.08,3.68.78,7.37,1.57,10.89,2.32-8.52,4.69-19.87.6-29.17-8.74Z"/>
    <path class="cls-3" d="M86.44,67.18c3.63-.76,7.33-1.54,11.03-2.32-.02-.35-.04-.71-.05-1.06-3.4-.3-6.79-.6-10.38-.91,8.56-7.86,18.67-4.82,28.5-4.77-4.6,8.52-20.78,13.39-29.1,9.07Z"/>
    <path class="cls-6" d="M130,43.97c-8.08,6.95-16.12,13.87-28.26,8.57,4.01-.78,7.63-1.49,11.26-2.2-.02-.31-.04-.61-.06-.92-3.22-.39-6.45-.77-9.85-1.18,8.24-6.56,17.74-4.36,26.91-4.27Z"/>
    <path class="cls-3" d="M341.6,48.21c-3.55.43-6.77.82-9.98,1.21-.02.31-.03.62-.05.93,3.58.69,7.15,1.39,10.68,2.07-7.56,4.84-18.03,1.21-27.65-8.36,7.79-2.18,20.08-.36,27.01,4.15Z"/>
    <path class="cls-11" d="M346.32,458.88h-7.85v22.81h-3.7v-22.75h-7.75v-3.36h19.3v3.3Z"/>
    <path class="cls-12" d="M117.22,28.15c1.1-2.32,2.2-4.63,3.29-6.95-.26-.18-.52-.36-.78-.54-2.35,2.71-4.7,5.42-7.16,8.26-.28-3.66,1.18-6.61,3.63-9.09,3.8-3.84,8.65-5.77,13.75-7.08,2.41-.62,4.92-.89,7.58-.87l-19.89,16.59c-.13-.12-.27-.23-.42-.32Z"/>
    <path class="cls-5" d="M324.53,22.15c.93,2,1.87,4,2.8,6-.15.09-.29.19-.41.32-2.78-2.11-5.7-4.08-8.32-6.38-3.83-3.36-7.45-6.96-10.87-10.19,8.88-.51,25.53,6.45,24.15,16.74-2.2-2.34-4.48-4.76-6.76-7.18-.26-.15-.52-.3-.78-.44.07.38.14.76.2,1.14Z"/>
    <path class="cls-10" d="M185.63,8.62c.51,3.09,1.03,6.18,1.57,9.42-1.02.24-1.86.44-3.04.71-.82-4.92-1.61-9.66-2.43-14.58,2.33-.97,4.28-1.4,6.11,1.08,1.79,2.43,3.98,4.57,6.43,6.6-.54-3.16-1.08-6.32-1.67-9.76,1.05-.14,1.98-.26,3.13-.41.81,4.95,1.59,9.7,2.35,14.36-2.77,1.59-4.46.58-6.1-1.52-1.77-2.26-3.86-4.27-5.82-6.39-.17-.12-.34-.25-.51-.37,0,.29,0,.57-.01.86Z"/>
    <path class="cls-7" d="M284.65,478.62h12.12v3.1h-15.67v-25.92h3.55v22.82Z"/>
    <path class="cls-12" d="M144.8,29.04c-5.22,5.28-10.58,10.44-18.4,11.36-2.37.28-4.87-.48-7.31-.76,0-.25.02-.51.03-.76,3.33-.7,6.67-1.4,10-2.1-.01-.28-.02-.57-.03-.85-2.71-.24-5.43-.48-8.53-.76,3.79-2.66,7.78-3.81,11.92-4.54,3.99-.7,8-1.3,11.99-1.94.1.13.21.25.33.36Z"/>
    <path class="cls-12" d="M300.09,28.69c4.79.81,9.64,1.4,14.36,2.5,3.22.75,6.26,2.22,9.39,3.36-.08.23-.17.46-.25.69-2.74.22-5.47.44-8.21.65-.03.27-.07.55-.1.82,3.36.73,6.71,1.46,10.37,2.26-4.71,2.43-9.31,2.24-13.35-.31-4.44-2.8-8.38-6.38-12.54-9.62.12-.11.23-.23.33-.35Z"/>
    <path class="cls-16" d="M273.19,14.97c.59-.35,1.2-1.03,1.76-.99,1.78.12,3.92,0,5.2.96,1,.74,1.35,2.97,1.23,4.47-.16,2.05-1.79,3.26-3.86,3.56-4.88.72-8.84-3.3-7.75-8.08.44-1.96,1.29-3.96,2.44-5.59,1.55-2.2,4.35-2.6,7.1-1.54,2.32.9,3.7,2.43,3.49,5.19-1.61.4-2.74.47-3.53-1.51-.74-1.85-3.08-1.91-4.47-.25-.84,1-1.35,2.27-2.01,3.42.13.12.27.24.4.36ZM279.44,18.02c-1.59-1.19-2.56-2.48-3.37-2.38-1.01.12-1.89,1.38-2.82,2.14.88.82,1.67,2.11,2.68,2.31.79.16,1.85-1.03,3.51-2.07Z"/>
    <path class="cls-12" d="M215.76,0h11.05v2.64h-7.81c-.05,1.21-.09,2.17-.15,3.39h6.66c.5,2.52.5,2.53-2.1,2.57-1.42.02-2.84,0-4.37,0v3.48h7.84c.1.99.18,1.74.29,2.73h-11.4V0Z"/>
    <path class="cls-16" d="M162.68,19.81c.72-.49,1.45-.99,2.29-1.55,1.58,2.49,3.68,2.43,5.84,1.16.55-.33.95-1.27.99-1.96.02-.3-1.03-.9-1.63-.95-1.62-.13-3.25.01-4.87-.06-2.07-.1-3.72-.94-4.23-3.11-.54-2.27.56-3.83,2.45-4.94,3.72-2.18,7.47-1.45,9.03,1.84-.63.45-1.28.9-1.92,1.36,0-.25,0-.5,0-.74-1.68-.19-3.37-.56-5.03-.48-.51.02-.97,1.25-1.46,1.93.64.38,1.25,1.01,1.92,1.08,1.52.15,3.07-.07,4.6.04,2.1.15,3.94.84,4.42,3.23.48,2.43-.81,3.94-2.81,5.01-4.3,2.29-7.7,1.67-9.57-1.87Z"/>
    <path class="cls-7" d="M306.33,21.93c2.02,1.42,4.04,2.84,6.5,4.57-10.07.54-15.39-5.94-21.01-12.36,7.44-.18,17.1,3.95,20.63,8.93-2.12-.53-3.98-1-5.83-1.46-.23-.01-.46-.03-.68-.05.13.12.26.25.39.37Z"/>
    <path class="cls-10" d="M137.94,21.62c-1.88.47-3.75.93-6.14,1.53,5.43-7.22,13.36-7.39,20.68-9.46-4.52,7.53-14.45,14.76-20.3,12.47,2-1.4,4.03-2.81,6.05-4.23.13-.12.26-.25.39-.37-.23.02-.45.04-.68.06Z"/>
    <path class="cls-10" d="M247.57,10.76c.12-5.43,3.03-8.76,7.36-8.41,2.75.22,4.92,1.86,5.28,4.58.26,1.91.16,3.99-.32,5.85-.99,3.79-3.77,5.5-7.26,4.89-3.34-.58-5.15-3.05-5.06-6.91ZM250.59,10.81c.3,1.98.42,3.98,2.73,4.3,2.28.32,3.13-1.58,3.52-3.36.32-1.46.39-3.08.09-4.53-.17-.84-1.21-1.94-2.01-2.08-.83-.15-2.23.47-2.68,1.2-.82,1.32-1.13,2.96-1.65,4.47Z"/>
    <path class="cls-7" d="M237.01,6.19c-.84-.27-1.68-.54-2.5-.8.3-3.14,1.52-4.5,4.35-4.91,2.75-.4,5.69.86,6.53,2.8.95,2.17-.02,4.89-2.4,6.58-.73.52-1.56.9-2.34,1.34-.77.43-1.55.86-3.1,1.72,2.93.26,5.08.45,7.38.66v2.65c-3.78-.32-7.5-.63-11.21-.95-.55-2.24-.03-3.72,2.11-4.6,1.49-.61,3.04-1.32,4.21-2.37,1.02-.91,1.63-2.33,2.19-3.62.07-.15-1.43-1.45-1.91-1.29-1.23.39-2.29,1.29-3.42,1.99l.09.8Z"/>
    <path class="cls-16" d="M213.33,9.6c-.15,4.31-2.02,6.15-6.06,6.32-4.28.19-6.89-2.15-7.53-6.77-.61-4.37,1.5-7.74,5.43-8.66,3.55-.83,6.02.48,7.25,4.07-.86.35-1.73.71-2.6,1.07.07-.27.13-.54.2-.8-1.4-.57-2.85-1.69-4.19-1.57-2.09.19-2.69,2.14-2.65,4.1.02.99.03,2.02.32,2.94.56,1.78,1.77,2.94,3.77,2.89,2.23-.06,3.15-1.43,3.21-3.59h2.85Z"/>
    <path class="cls-6" d="M8.21,455.7h3.42v25.99h-3.42v-25.99Z"/>
    <path class="cls-13" d="M88.85,455.79h3.31v25.91h-3.31v-25.91Z"/>
    <path class="cls-13" d="M354.12,481.78h-3.31v-25.99h3.31v25.99Z"/>
    <path class="cls-7" d="M268.97,5.39c-1.1,4.91-2.15,9.63-3.26,14.55-1.15-.24-2.08-.43-3.2-.66.58-2.73,1.21-5.25,1.6-7.8.14-.95-.31-1.98-.9-2.96-.06-2.49,2.3-3.8,5.76-3.14Z"/>
    <path class="cls-10" d="M174.84,5.44c1.22-.24,2.15-.42,3.26-.63,1.1,4.89,2.16,9.59,3.28,14.55-1.21.24-2.14.42-3.26.64-1.11-4.94-2.17-9.64-3.28-14.56Z"/>
    <path class="cls-12" d="M299.76,29.05c-.12-.15-.24-.31-.37-.46.23.04.47.07.7.11-.1.12-.22.24-.33.35Z"/>
    <path class="cls-12" d="M144.46,28.68c.23-.03.47-.07.7-.1-.12.15-.25.31-.37.46-.12-.11-.23-.23-.33-.36Z"/>
    <path class="cls-12" d="M117.64,28.47c-.17.1-.34.2-.5.31.03-.21.05-.42.08-.62.15.09.29.19.42.32Z"/>
    <path class="cls-3" d="M39.49,245.9c-.07.14-.15.27-.22.41.09-.12.18-.24.27-.36,0,0-.05-.05-.05-.05Z"/>
    <path class="cls-6" d="M11.84,270.88c-.12-.09-.24-.19-.36-.28.07-.04.19-.13.21-.11.1.09.17.21.26.31,0,0-.11.08-.11.08Z"/>
    <path class="cls-6" d="M33.2,203.44c.13.12.25.24.38.36-.11-.12-.22-.23-.34-.35,0,0-.04,0-.04,0Z"/>
    <path class="cls-4" d="M405.02,245.95l.42.17c-.12-.07-.25-.15-.37-.22,0,0-.05.05-.05.05Z"/>
    <path class="cls-8" d="M16.76,203.59c.12.15.23.3.35.45-.22-.03-.44-.05-.66-.08.09-.13.19-.26.31-.37Z"/>
    <path class="cls-8" d="M428.1,203.94c-.22.03-.44.06-.66.09.12-.15.23-.3.35-.44.12.11.22.23.31.35Z"/>
    <path class="cls-6" d="M411.32,203.44c-.04.14-.08.29-.12.43-.06-.05-.12-.1-.19-.15.11-.09.22-.19.33-.29,0,0-.02,0-.02,0Z"/>
    <polygon class="cls-6" points="325.21 376.65 325.27 376.59 325.26 376.72 325.21 376.65"/>
    <path class="cls-5" d="M327.33,28.16c.02.21.05.41.07.62-.16-.1-.33-.2-.49-.3.12-.12.26-.23.41-.32Z"/>
    <path class="cls-6" d="M432.77,270.91c0-.13-.02-.26-.03-.39.08,0,.17.01.25.02-.1.11-.19.22-.29.33,0,0,.07.04.07.04Z"/>
    <polygon class="cls-4" points="119.32 376.73 119.28 376.6 119.36 376.67 119.32 376.73"/>
    <path class="cls-2" d="M170.45,401.53c.41-.74.57-1.51.94-1.62,2.76-.88,3.04-3.17,3.08-5.45.1-5.69.1-11.38,0-17.07-.04-2.26-.27-4.58-3.04-5.46-.38-.12-.55-.88-1.01-1.67,7.57,0,14.7-.31,21.78.1,5.61.33,8.68,5.76,6.79,11.09-.44,1.26-1.16,2.41-1.77,3.63,5.99,4.58,6.6,10.41,1.3,14.44-1.3.99-3.07,1.88-4.64,1.92-7.66.2-15.33.09-23.43.09ZM187.19,398.26c4.4,0,5.53-.91,5.25-5-.31-4.67-1.52-6.93-6.74-6.48-1.77.15-2.68.45-2.5,2.44.15,1.7.03,3.42.03,5.13q0,3.91,3.96,3.91ZM183.23,383.39c1.39,0,2.39.13,3.33-.04.98-.17,2.24-.35,2.81-1.02,1.3-1.53.96-6.43-.69-7.59-1.17-.82-2.96-.9-4.48-.93-.31,0-.87,1.7-.93,2.63-.14,2.15-.04,4.31-.04,6.93Z"/>
    <path class="cls-2" d="M269.97,385.18c3.4,1.92,5.57,4.68,4.78,8.81-.72,3.77-3.09,6.23-6.83,7.29-.35.1-.7.23-1.05.23-7.75.01-15.5.01-23.78.01.53-.79.74-1.49,1.13-1.61,2.31-.76,2.95-2.59,2.98-4.67.07-6.24.08-12.47,0-18.71-.03-1.94-.55-3.75-2.76-4.52-.47-.16-.74-.88-1.43-1.77,7.7,0,14.74-.26,21.76.08,5.76.28,8.97,5.74,7.02,11.18-.45,1.24-1.16,2.39-1.8,3.69ZM256,392.51c.11,6.58-1.02,5.62,5.68,5.79,2.04.05,3.18-.89,3.35-2.69.17-1.75.18-3.65-.34-5.29-1.33-4.19-2.56-3.75-7.3-3.35-2.64.23-.94,2.93-1.38,4.46-.1.33-.01.72-.01,1.08ZM255.99,378.46c0,.99-.1,2,.03,2.98.09.63.34,1.53.8,1.78,2.93,1.58,6.03-.23,6.05-3.55,0-1.33-.23-2.72-.67-3.97-.8-2.27-2.82-2.31-4.76-2.08-2.11.24-1.29,2-1.44,3.22-.07.53-.01,1.08,0,1.63Z"/>
    <path class="cls-8" d="M236.22,402.22c-3.69-2.74-6.58-.67-9.63-.18-7.1,1.13-13.68.05-18.1-6.3-3.81-5.47-4.01-11.55-1.26-17.52,2.68-5.8,7.64-8.73,13.89-8.6,3.58.08,7.25,1.08,10.66,2.31,1.65.6,3.03,2.49,4.08,4.1,1.27,1.95,1.06,4.18-.36,6.1-1.44,1.95-3.51,2.45-5.8,2.1-2.48-.37-3.19-1.49-2.79-4,.42-2.63-.67-4.58-2.96-5.84-2.12-1.16-4.75-.65-6.43,1.15-5.03,5.37-2.31,18.87,4.45,21.81,1.05.46,2.25.69,3.39.75.58.03,1.48-.42,1.74-.91,1.25-2.37-.38-7.05-2.83-8.64-.32-.21-.76-.8-.68-.92.24-.37.7-.85,1.08-.86,4.61-.06,9.22-.06,13.83,0,.41,0,.81.45,1.21.69-.27.38-.46.99-.81,1.1-1.99.63-2.58,2.2-2.64,3.99-.1,2.95-.03,5.91-.03,9.68Z"/>
  </g>
</svg>